Coordinates
version=1
nRows=7
nColumns=40
inDegrees=yes

Units are S.I. units (second, meters, Newtons, ...)
Angles are in degrees.

endheader
time	pelvis_tilt	pelvis_list	pelvis_rotation	pelvis_tx	pelvis_ty	pelvis_tz	hip_flexion_r	hip_adduction_r	hip_rotation_r	knee_angle_r	knee_angle_r_beta	ankle_angle_r	subtalar_angle_r	mtp_angle_r	hip_flexion_l	hip_adduction_l	hip_rotation_l	knee_angle_l	knee_angle_l_beta	ankle_angle_l	subtalar_angle_l	mtp_angle_l	lumbar_extension	lumbar_bending	lumbar_rotation	arm_flex_r	arm_add_r	arm_rot_r	elbow_flex_r	pro_sup_r	wrist_flex_r	wrist_dev_r	arm_flex_l	arm_add_l	arm_rot_l	elbow_flex_l	pro_sup_l	wrist_flex_l	wrist_dev_l
     35.55328571	     -3.29647963	     -2.79766404	      8.18214098	      1.01251551	      0.92260235	      0.55733368	     11.81214040	      3.76416200	    -11.68437944	     23.54109988	     23.54109988	     16.85827668	     -9.89674720	     -1.40137898	     31.45775552	    -10.72269851	      5.62149600	     50.75471739	     50.75471739	      9.91747566	    -18.04001953	      9.02960885	     -7.65746885	      3.47623059	      2.74989632	     30.96353656	    -16.65500253	     -2.49073546	     34.69075218	     46.41781228	      0.00000000	      0.00000000	     -9.57431718	     -6.74936525	     -2.07219737	     19.60274689	     45.20572858	      0.00000000	      0.00000000
     35.57407143	     -3.39451825	     -2.56190259	      8.78217363	      1.01135262	      0.92477140	      0.55724222	     10.77158542	      3.54521221	    -12.62906647	     21.86419190	     21.86419190	     16.29531712	     -8.84417054	     -2.14036975	     31.39434005	    -10.33808137	      5.30033018	     47.39244745	     47.39244745	      9.06129239	    -17.90781193	      8.09139206	     -7.54210286	      3.33684730	      2.11117078	     33.22727731	    -16.67397416	     -2.26777359	     40.44015609	     46.16265416	      0.00000000	      0.00000000	    -12.72420384	     -7.08332944	      0.69257853	     22.49637527	     44.42110373	      0.00000000	      0.00000000
     35.59485714	     -3.54466163	     -2.34897584	      9.28272466	      1.01007102	      0.92677801	      0.55705585	      9.78914629	      3.47673900	    -13.04588649	     20.10775442	     20.10775442	     15.54107473	     -8.54148060	     -2.86030532	     31.07922004	     -9.97267962	      4.88596890	     43.50389509	     43.50389509	      7.76702695	    -17.58880398	      6.07037852	     -7.26739806	      3.29082775	      2.80214875	     35.45887561	    -18.11958357	     -0.32383733	     44.30814490	     45.82684571	      0.00000000	      0.00000000	    -15.11612713	     -9.58660514	     17.19248542	     26.36971690	     41.69161199	      0.00000000	      0.00000000
     35.61564286	     -3.77353137	     -2.10345183	      9.80190657	      1.00867514	      0.92846852	      0.55648210	      9.01803117	      3.23728733	    -13.82002495	     18.68006246	     18.68006246	     15.25951728	     -7.56126590	     -2.81247140	     30.71171079	     -9.47141926	      4.50481099	     39.50227558	     39.50227558	      6.98256276	    -16.65830974	      5.53574917	     -7.00615593	      3.14921529	      2.81521449	     37.85144427	    -18.51000905	     -0.57083510	     48.34320402	     45.69230129	      0.00000000	      0.00000000	    -16.84913594	     -9.81166337	     17.59428754	     28.08722966	     41.77797679	      0.00000000	      0.00000000
     35.63642857	     -3.99419148	     -1.94869423	     10.31631544	      1.00727986	      0.92981455	      0.55580028	      8.25762997	      3.12680134	    -14.54002318	     17.24146160	     17.24146160	     14.89288052	     -6.72696142	     -2.90592065	     30.22677502	     -9.05549249	      4.11481090	     35.42831613	     35.42831613	      6.14067165	    -15.26469836	      4.74465409	     -6.74810182	      3.11151835	      2.80099657	     40.15814314	    -19.01461098	      0.01325442	     52.45702437	     45.52499613	      0.00000000	      0.00000000	    -18.19222445	    -10.01165805	     18.37132478	     29.33172484	     41.81758151	      0.00000000	      0.00000000
     35.65721429	     -4.14679783	     -1.87282894	     10.81451967	      1.00589626	      0.93085717	      0.55501655	      7.49101528	      3.12816533	    -15.18104757	     15.89907011	     15.89907011	     14.60826014	     -6.00934346	     -2.86737128	     29.67000360	     -8.72723248	      3.67912341	     31.57194278	     31.57194278	      5.71298252	    -13.30264116	      4.75722618	     -6.56262948	      3.17553721	      2.59276351	     42.72446118	    -19.11817132	      0.34936574	     55.79513744	     45.40607289	      0.00000000	      0.00000000	    -19.20013624	    -10.02400345	     18.90960168	     29.97019912	     41.81550121	      0.00000000	      0.00000000
     35.67800000	     -4.28530454	     -1.77665973	     11.26699300	      1.00454569	      0.93142038	      0.55413098	      6.90587341	      3.05990393	    -15.78683883	     14.94576251	     14.94576251	     14.29656954	     -5.47574396	     -3.40858816	     29.02509653	     -8.38596440	      3.11110889	     27.86843741	     27.86843741	      5.03444871	    -11.21579628	      4.04300872	     -6.45165975	      3.20239215	      3.13317146	     44.12252384	    -20.29779001	      0.98785697	     61.21583390	     45.23743517	      0.00000000	      0.00000000	    -19.78861532	    -10.90594296	     22.66840575	     31.65775716	     42.02456181	      0.00000000	      0.00000000
